<svg xmlns="http://www.w3.org/2000/svg" version="1.1" xmlns:xlink="http://www.w3.org/1999/xlink" xmlns:svgjs="http://svgjs.dev/svgjs" width="2000" height="500" preserveAspectRatio="none" viewBox="0 0 2000 500"><g mask="url(&quot;#SvgjsMask1137&quot;)" fill="none"><path d="M2100.0000000000005 500L0 500 L0 416.88Q51.02 367.9, 100 418.93Q176.35 328.61, 266.6666666666667 404.96Q328.66 366.95, 366.6666666666667 428.95Q411.22 373.5, 466.6666666666667 418.06Q543.77 328.5, 633.3333333333334 405.6Q729.25 334.85, 800 430.77Q876.75 340.86, 966.6666666666667 417.61Q1041.88 326.15, 1133.3333333333335 401.36Q1231.18 332.54, 1300.0000000000002 430.38Q1375.18 338.9, 1466.666666666667 414.08Q1507.21 354.62, 1566.666666666667 395.16Q1632.14 360.63, 1666.666666666667 426.1Q1743.71 336.47, 1833.3333333333337 413.51Q1875.48 355.66, 1933.3333333333337 397.81Q2030.33 328.14, 2100.0000000000005 425.14z" fill="rgba(96, 125, 139, 1)"></path><path d="M2033.333333333334 500L0 500 L0 437.63Q48.3 385.93, 100 434.23Q159.27 393.5, 200 452.78Q234.53 387.31, 300 421.84Q390.46 345.63, 466.6666666666667 436.09Q524.06 393.48, 566.6666666666667 450.88Q636.52 354.06, 733.3333333333335 423.91Q825.06 348.97, 900.0000000000002 440.7Q988.82 362.85, 1066.666666666667 451.67Q1101.71 386.71, 1166.666666666667 421.75Q1258.62 347.03, 1333.3333333333337 438.98Q1389.4 395.05, 1433.3333333333337 451.12Q1504.71 355.83, 1600.0000000000005 427.2Q1656.35 383.55, 1700.0000000000005 439.9Q1791.84 365.07, 1866.6666666666672 456.91Q1935.64 359.22, 2033.333333333334 428.19z" fill="rgba(144, 164, 174, 1)"></path><path d="M2033.3333333333337 500L0 500 L0 451.37Q56.87 408.25, 100 465.12Q157 422.12, 200 479.11Q268.97 381.41, 366.6666666666667 450.38Q455.7 372.75, 533.3333333333334 461.78Q591.29 419.74, 633.3333333333334 477.7Q703.09 380.79, 800 450.55Q856.85 407.39, 900 464.24Q955.41 419.65, 1000 475.07Q1070.5 378.91, 1166.6666666666667 449.41Q1223.15 405.89, 1266.6666666666667 462.38Q1355.66 384.71, 1433.3333333333335 473.7Q1504.46 378.16, 1600.0000000000002 449.29Q1690.22 372.85, 1766.666666666667 463.07Q1821.76 418.16, 1866.666666666667 473.25Q1939.09 379.01, 2033.3333333333337 451.43z" fill="rgba(236, 239, 241, 1)"></path><path d="M2066.666666666667 500L0 500 L0 476.75Q87.32 397.41, 166.66666666666669 484.73Q260.89 412.29, 333.33333333333337 506.51Q378.17 451.35, 433.33333333333337 496.19Q505.82 402.01, 600 474.5Q666.51 441.01, 700 507.52Q739.35 446.87, 800 486.22Q877.66 397.21, 966.6666666666667 474.87Q1064.63 406.17, 1133.3333333333335 504.14Q1209.48 413.62, 1300.0000000000002 489.76Q1377.26 400.35, 1466.666666666667 477.61Q1562.95 407.22, 1633.3333333333337 503.5Q1709.39 412.89, 1800.0000000000005 488.94Q1876.29 398.57, 1966.6666666666672 474.86Q2029.44 437.63, 2066.666666666667 500.4z" fill="rgba(255, 243, 224, 1)"></path></g><defs><mask id="SvgjsMask1137"><rect width="2000" height="500" fill="#ffffff"></rect></mask></defs></svg>